<?xml version="1.0" standalone="no"?>
<!DOCTYPE svg PUBLIC "-//W3C//DTD SVG 20010904//EN"
 "http://www.w3.org/TR/2001/REC-SVG-20010904/DTD/svg10.dtd">
<svg version="1.0" xmlns="http://www.w3.org/2000/svg"
 width="260.000000pt" height="260.000000pt" viewBox="0 0 260.000000 260.000000"
 preserveAspectRatio="xMidYMid meet">
<metadata>
Created by potrace 1.14, written by Peter Selinger 2001-2017
</metadata>
<g transform="translate(0.000000,260.000000) scale(0.100000,-0.100000)"
fill="#000000" stroke="none">
<path d="M892 2458 c-16 -16 -15 -36 7 -84 27 -60 59 -87 95 -80 40 8 66 34
66 66 0 60 -130 136 -168 98z"/>
<path d="M1710 2364 c0 -81 58 -141 106 -109 59 38 -4 145 -86 145 -16 0 -20
-6 -20 -36z"/>
<path d="M1095 2259 c-56 -30 -83 -57 -110 -109 -30 -60 -37 -113 -25 -190 34
-218 271 -456 435 -437 130 14 194 183 150 398 -44 221 -177 359 -344 359 -48
0 -77 -6 -106 -21z"/>
<path d="M1813 2160 c-52 -32 -67 -71 -71 -195 -5 -134 23 -286 62 -345 53
-80 154 -129 310 -151 100 -14 148 -5 187 37 22 24 24 34 24 122 0 93 -2 101
-42 184 -51 108 -130 224 -190 278 -90 84 -209 114 -280 70z"/>
<path d="M293 1803 c-9 -24 27 -84 66 -110 42 -28 85 -29 111 -3 27 27 25 51
-8 83 -47 45 -156 65 -169 30z"/>
<path d="M635 1755 c-98 -26 -165 -133 -165 -265 0 -105 46 -186 143 -250 140
-94 422 -134 505 -73 81 58 94 192 32 318 -41 83 -140 186 -216 227 -100 54
-203 69 -299 43z"/>
<path d="M1465 1411 c-104 -27 -167 -102 -214 -256 -32 -101 -81 -402 -88
-530 -8 -163 22 -267 99 -345 65 -65 136 -94 232 -94 71 -1 89 3 141 29 62 31
78 48 159 175 58 92 73 97 214 75 108 -17 116 -17 177 0 249 67 323 325 158
546 -105 139 -392 320 -603 379 -81 23 -227 34 -275 21z"/>
<path d="M540 1110 c-57 -12 -116 -54 -155 -109 -27 -38 -30 -51 -30 -115 0
-133 76 -235 203 -273 120 -35 318 -14 427 45 106 58 142 180 85 292 -23 45
-54 69 -134 104 -120 53 -292 77 -396 56z"/>
<path d="M161 926 c-19 -7 -36 -17 -38 -23 -2 -6 15 -27 38 -47 35 -29 51 -36
86 -36 37 0 45 4 55 25 22 48 -22 96 -85 94 -12 0 -37 -6 -56 -13z"/>
</g>
</svg>
